<svg xmlns="http://www.w3.org/2000/svg" width="392" height="152" viewBox="0 0 392 152">
<g>
<path d="M 125.76 90.25 L 125.50 126.50 L 78.43 126.76 C52.54,126.90 31.05,126.72 30.68,126.34 C30.30,125.97 30.00,101.89 30.00,72.83 L 30.00 20.00 L 94.00 20.00 L 94.00 30.09 C94.00,38.96 93.78,40.24 92.21,40.66 C91.22,40.91 81.66,41.21 70.96,41.31 L 51.50 41.50 L 51.50 62.50 L 67.25 62.78 L 83.00 63.05 L 83.00 85.00 L 50.96 85.00 L 51.13 94.58 C51.29,103.72 51.41,104.21 53.71,105.08 C56.48,106.13 85.94,106.32 97.35,105.35 L 105.00 104.71 L 105.00 20.00 L 115.75 20.07 L 126.50 20.13 L 143.61 39.82 C183.78,86.02 189.09,92.00 190.02,92.00 C190.64,92.00 191.00,78.81 191.00,56.00 L 191.00 20.00 L 255.00 20.00 L 255.00 29.94 C255.00,35.41 254.62,40.12 254.15,40.41 C253.68,40.69 244.01,40.98 232.65,41.04 L 212.00 41.15 L 212.00 63.00 L 244.07 63.00 L 243.50 84.50 L 227.75 84.78 L 212.00 85.05 L 212.00 94.91 C212.00,104.34 212.10,104.78 214.25,105.18 C218.60,105.97 246.90,106.16 255.90,105.45 L 265.00 104.74 L 265.00 20.00 L 286.64 20.00 L 332.76 72.70 C358.12,101.68 378.65,125.75 378.38,126.20 C378.11,126.64 359.91,127.00 337.94,127.00 L 298.00 127.00 L 298.00 116.50 C298.00,110.72 298.34,105.98 298.75,105.96 C299.16,105.94 306.56,105.82 315.18,105.69 C323.81,105.57 331.11,105.22 331.41,104.92 C331.91,104.42 311.67,80.60 294.60,61.59 L 287.50 53.68 L 287.00 90.09 L 286.50 126.50 L 238.88 126.76 L 191.26 127.02 L 159.38 90.51 C141.85,70.43 127.17,54.00 126.76,54.00 C126.36,54.00 125.91,70.31 125.76,90.25 Z" fill="rgb(4,95,189)"/>
<path d="M 0.00 76.00 L 0.00 0.00 L 196.00 0.00 L 392.00 0.00 L 392.00 76.00 L 392.00 152.00 L 196.00 152.00 L 0.00 152.00 L 0.00 76.00 ZM 125.76 90.25 C125.91,70.31 126.36,54.00 126.76,54.00 C127.17,54.00 141.85,70.43 159.38,90.51 L 191.26 127.02 L 238.88 126.76 L 286.50 126.50 L 287.00 90.09 L 287.50 53.68 L 294.60 61.59 C311.67,80.60 331.91,104.42 331.41,104.92 C331.11,105.22 323.81,105.57 315.18,105.69 C306.56,105.82 299.16,105.94 298.75,105.96 C298.34,105.98 298.00,110.72 298.00,116.50 L 298.00 127.00 L 337.94 127.00 C359.91,127.00 378.11,126.64 378.38,126.20 C378.65,125.75 358.12,101.68 332.76,72.70 L 286.64 20.00 L 275.82 20.00 L 265.00 20.00 L 265.00 62.37 L 265.00 104.74 L 255.90 105.45 C246.90,106.16 218.60,105.97 214.25,105.18 C212.10,104.78 212.00,104.34 212.00,94.91 L 212.00 85.05 L 227.75 84.78 L 243.50 84.50 L 243.78 73.75 L 244.07 63.00 L 228.03 63.00 L 212.00 63.00 L 212.00 52.07 L 212.00 41.15 L 232.65 41.04 C244.01,40.98 253.68,40.69 254.15,40.41 C254.62,40.12 255.00,35.41 255.00,29.94 L 255.00 20.00 L 223.00 20.00 L 191.00 20.00 L 191.00 56.00 C191.00,78.81 190.64,92.00 190.02,92.00 C189.09,92.00 183.78,86.02 143.61,39.82 L 126.50 20.13 L 115.75 20.07 L 105.00 20.00 L 105.00 62.35 L 105.00 104.71 L 97.35 105.35 C85.94,106.32 56.48,106.13 53.71,105.08 C51.41,104.21 51.29,103.72 51.13,94.58 L 50.96 85.00 L 66.98 85.00 L 83.00 85.00 L 83.00 74.03 L 83.00 63.05 L 67.25 62.78 L 51.50 62.50 L 51.50 52.00 L 51.50 41.50 L 70.96 41.31 C81.66,41.21 91.22,40.91 92.21,40.66 C93.78,40.24 94.00,38.96 94.00,30.09 L 94.00 20.00 L 62.00 20.00 L 30.00 20.00 L 30.00 72.83 C30.00,101.89 30.30,125.97 30.68,126.34 C31.05,126.72 52.54,126.90 78.43,126.76 L 125.50 126.50 L 125.76 90.25 Z" fill="rgb(253,254,254)"/>
</g>
</svg>